<?xml version="1.0" encoding="utf-8"?>
<svg viewBox="74.921 294.969 389.437 113.472" xmlns="http://www.w3.org/2000/svg">
  <path fill="#1C2020" opacity="1.000000" stroke="none" d="M 188.666 398.56 C 181.946 399.44 178.199 394.014 173.04 390.964 C 175.668 382.165 178.304 373.687 181.438 365.422 C 183.353 360.377 184.306 355.365 182.705 350.233 C 181.397 346.038 179.672 341.932 177.676 338.048 C 174.819 332.488 174.432 327.652 180.045 323.59 C 180.371 323.376 180.508 323.202 180.862 322.914 C 182.889 322.362 447.501 326.297 449.643 323.697 C 449.958 323.692 450.273 323.685 450.882 323.943 C 452.336 324.759 453.496 325.31 454.656 325.863 C 454.656 325.863 454.652 325.895 454.72 326.043 C 454.92 326.391 455.091 326.544 455.301 326.65 C 457.775 332.293 460.25 337.936 462.907 343.749 C 463.341 344.992 463.591 346.063 463.877 347.679 C 463.91 348.784 463.91 349.344 463.91 349.902 C 463.895 350.027 463.878 350.152 463.707 350.591 C 463.378 351.773 463.204 352.641 463.03 353.507 C 462.802 353.869 462.572 354.231 462.079 354.907 C 460.548 357.961 459.281 360.7 457.86 363.618 C 453.169 371.772 449.297 380.001 448.849 389.546 C 446.208 396.639 440.044 395.266 434.981 395.444 C 423.3 395.852 411.597 395.582 399.57 395.595 C 395.434 395.593 391.63 395.585 387.162 395.58 C 369.458 395.581 352.418 395.578 335.186 395.411 C 333.912 395.356 332.828 395.467 331.427 395.573 C 328.979 395.566 326.851 395.56 324.723 395.555 C 323.472 395.337 322.22 394.933 320.967 394.93 C 300.762 394.892 280.555 394.897 260.347 394.923 C 259.065 394.925 257.577 394.8 256.536 395.408 C 251.845 398.146 246.803 397.965 241.715 397.948 C 225.762 397.891 209.81 397.913 193.857 397.957 C 192.223 397.961 190.59 398.318 188.666 398.56" style="" transform="matrix(0.9999999999999999, 0, 0, 0.9999999999999999, 1.4210854715202004e-14, 5.684341886080802e-14)"/>
  <path fill="#192221" opacity="1.000000" stroke="none" d="M 455.151 392.844 C 454.41 392.84 453.677 392.845 452.663 392.52 C 451.223 385.524 452.278 379.278 455.324 373.309 C 456.902 370.218 458.15 366.939 459.769 363.603 C 460.992 363.288 461.994 363.115 462.995 362.943 C 462.995 362.943 463.018 362.899 463.015 363.185 C 463.467 364.787 463.923 366.104 464.379 367.422 C 464.391 368.694 464.403 369.968 464.249 371.727 C 463.731 373.108 463.38 374.003 463.028 374.899 C 462.783 375.474 462.538 376.051 462.092 377.029 C 461.533 378.329 461.176 379.227 460.818 380.125 C 459.89 382.172 458.963 384.221 457.844 386.715 C 456.822 389.061 455.99 390.961 455.158 392.861 C 455.158 392.861 455.159 392.857 455.151 392.844 Z" style="" transform="matrix(0.9999999999999999, 0, 0, 0.9999999999999999, 1.4210854715202004e-14, 5.684341886080802e-14)"/>
  <path fill="#1D2021" opacity="1.000000" stroke="none" d="M 168.43 316.195 C 169.427 316.69 170.222 317.151 171.245 317.648 C 172.298 319.187 173.369 320.607 173.865 322.223 C 174.219 323.377 174.295 325.422 173.647 325.989 C 170.903 328.388 172.074 330.732 173.138 333.278 C 175.644 339.269 178.695 345.113 180.32 351.366 C 181.287 355.085 180.701 359.718 179.534 363.5 C 176.784 372.416 173.269 381.068 170.06 390.124 C 168.011 393.917 164.771 395.617 160.824 397.086 C 159.569 397.697 158.767 398.159 157.967 398.621 C 157.149 399.018 156.33 399.417 155.067 399.984 C 150.29 402.656 145.962 405.159 141.634 407.664 C 141.634 407.664 141.292 407.694 140.835 407.702 C 138.677 407.956 136.978 408.201 135.277 408.447 C 134.066 408.425 132.856 408.403 131.184 408.197 C 129.163 407.143 127.605 406.276 126.047 405.408 C 126.047 405.408 125.735 405.384 125.58 405.381 C 121.508 403.9 117.684 401.942 113.65 401.069 C 108.86 400.033 103.873 400.057 99.008 399.351 C 97.489 399.131 95.86 398.318 94.677 397.275 C 92.429 395.293 90.276 393.109 88.458 390.695 C 87.368 389.249 86.888 387.243 86.309 385.426 C 85.55 383.05 84.964 380.611 84.24 377.652 C 81.335 372.282 78.495 367.462 75.656 362.641 C 75.534 362.242 75.412 361.844 75.145 361.299 C 74.469 354.19 75.776 347.661 78.187 341.115 C 81.218 332.884 83.485 324.338 86.007 315.903 C 86.975 312.671 88.899 310.644 91.918 309.533 C 104.606 304.864 117.236 300.017 129.977 295.521 C 132.127 294.762 134.823 294.949 137.091 295.499 C 144.383 297.266 149.333 303.154 155.167 307.501 C 158.908 310.287 162.846 312.781 166.945 315.455 C 167.539 315.723 167.883 315.942 168.43 316.195 M 148.681 391.2 C 151.328 389.746 153.974 388.291 157.086 386.715 C 157.818 386.421 158.551 386.126 159.822 385.868 C 161.167 384.535 163.112 383.458 163.742 381.818 C 165.451 377.367 166.601 372.677 168.266 367.758 C 168.741 366.83 169.216 365.903 170.009 364.578 C 170.611 362.068 171.344 359.582 171.78 357.039 C 172.424 353.276 172.466 349.582 169.203 346.305 C 168.943 345.513 168.658 344.73 168.426 343.93 C 166.834 338.438 165.252 332.942 163.599 326.921 C 162.571 325.295 161.875 323.162 160.458 322.126 C 152.866 316.576 145.14 311.22 137.325 306.026 C 136.3 305.345 134.493 305.98 132.503 305.809 C 128.938 306.833 125.374 307.857 121.321 308.868 C 120.07 309.556 118.821 310.243 117.018 311.005 C 110.862 313.084 104.631 314.958 98.593 317.369 C 96.831 318.072 94.93 320.036 94.267 321.89 C 91.144 330.628 88.43 339.53 85.172 348.767 C 81.961 355.116 86.738 363.551 91.386 367.512 C 91.951 368.723 92.464 369.964 93.094 371.136 C 94.07 372.957 95.777 374.635 96.027 376.543 C 96.805 382.474 100.605 385.503 105.269 388.772 C 111.103 390.384 122.23 391.286 122.108 393.056 C 125.841 394.062 129.598 395.088 133.36 396.084 C 136.859 397.011 140.133 396.551 143.564 394.153 C 144.583 393.636 145.604 393.121 147.031 392.513 C 147.398 392.074 147.765 391.636 148.681 391.2 Z" style="" transform="matrix(0.9999999999999999, 0, 0, 0.9999999999999999, 1.4210854715202004e-14, 5.684341886080802e-14)"/>
  <path fill="#172726" opacity="1.000000" stroke="none" d="M 82.605 379.573 C 82.841 381.391 83.079 383.208 83.315 385.026 C 81.917 383.802 80.139 382.838 79.2 381.303 C 77.301 378.201 74.382 375.296 76.326 370.776 C 78.698 373.609 80.651 376.591 82.605 379.573 Z" style="" transform="matrix(0.9999999999999999, 0, 0, 0.9999999999999999, 1.4210854715202004e-14, 5.684341886080802e-14)"/>
</svg>