<?xml version="1.0" encoding="utf-8"?>
<svg viewBox="74.974 295.057 105.805 113.367" xmlns="http://www.w3.org/2000/svg">
  <path fill="#1D2021" opacity="1.000000" stroke="none" d="M 168.43 316.195 C 169.427 316.69 170.222 317.151 171.245 317.648 C 172.298 319.187 173.369 320.607 173.865 322.223 C 174.219 323.377 174.295 325.422 173.647 325.989 C 170.903 328.388 172.074 330.732 173.138 333.278 C 175.644 339.269 178.695 345.113 180.32 351.366 C 181.287 355.085 180.701 359.718 179.534 363.5 C 176.784 372.416 173.269 381.068 170.06 390.124 C 168.011 393.917 164.771 395.617 160.824 397.086 C 159.569 397.697 158.767 398.159 157.967 398.621 C 157.149 399.018 156.33 399.417 155.067 399.984 C 150.29 402.656 145.962 405.159 141.634 407.664 C 141.634 407.664 141.292 407.694 140.835 407.702 C 138.677 407.956 136.978 408.201 135.277 408.447 C 134.066 408.425 132.856 408.403 131.184 408.197 C 129.163 407.143 127.605 406.276 126.047 405.408 C 126.047 405.408 125.735 405.384 125.58 405.381 C 121.508 403.9 117.684 401.942 113.65 401.069 C 108.86 400.033 103.873 400.057 99.008 399.351 C 97.489 399.131 95.86 398.318 94.677 397.275 C 92.429 395.293 90.276 393.109 88.458 390.695 C 87.368 389.249 86.888 387.243 86.309 385.426 C 85.55 383.05 84.964 380.611 84.24 377.652 C 81.335 372.282 78.495 367.462 75.656 362.641 C 75.534 362.242 75.412 361.844 75.145 361.299 C 74.469 354.19 75.776 347.661 78.187 341.115 C 81.218 332.884 83.485 324.338 86.007 315.903 C 86.975 312.671 88.899 310.644 91.918 309.533 C 104.606 304.864 117.236 300.017 129.977 295.521 C 132.127 294.762 134.823 294.949 137.091 295.499 C 144.383 297.266 149.333 303.154 155.167 307.501 C 158.908 310.287 162.846 312.781 166.945 315.455 C 167.539 315.723 167.883 315.942 168.43 316.195" style="" transform="matrix(1, 0, 0, 1, 0, -5.684341886080802e-14)"/>
</svg>