<?xml version="1.0" encoding="utf-8"?>
<svg viewBox="539.4844 149.4495 215.5104 42.2042" xmlns="http://www.w3.org/2000/svg">
  <path opacity="1.000000" d="M 540.124 155.321 C 543.456 150.589 547.837 149.974 552.932 149.99 C 576.232 150.064 599.537 149.956 622.833 149.524 C 628.861 149.412 634.57 149.066 640.245 151.92 C 642.235 152.921 645.327 151.823 647.901 151.545 C 651.819 151.123 655.722 150.171 659.635 150.153 C 687.1 150.03 714.569 150.269 742.032 149.94 C 747.721 149.872 751.625 151.55 754.815 156.347 C 755.038 165.042 755.016 173.535 754.948 182.027 C 754.903 187.682 752.023 190.665 746.495 190.673 C 727.341 190.702 707.541 191.314 688.436 190.342 C 681.584 189.993 675.732 190.827 669.104 191.06 C 641.989 192.016 614.818 191.607 587.672 191.281 C 582.639 191.22 575.815 188.458 570.754 187.583 C 568.704 187.229 568.334 188.182 566.225 188.44 C 560.677 189.118 555.165 190.269 549.602 190.589 C 543.283 190.953 539.428 186.957 539.485 180.646 C 539.56 172.347 539.818 164.051 540.124 155.321" style="stroke: rgb(28, 32, 32); fill: rgb(28, 32, 32);" transform="matrix(1, 0, 0, 1, 0, -1.1102230246251565e-16)"/>
</svg>